<svg width="189" height="210" viewBox="0 0 189 210" fill="none" xmlns="http://www.w3.org/2000/svg">
<g clip-path="url(#clip0_1_149)">
<path d="M167.757 67.9322L62.0241 5.87008C61.5051 5.55457 60.976 5.2645 60.4495 4.97188C47.8656 -1.77095 33.6995 -1.53432 21.983 4.93372C17.6968 7.28735 13.7566 10.473 10.3301 14.4449C-2.71162 29.5896 -3.46712 50.4237 8.42233 66.2707L37.2404 104.99L49.2214 121.089L63.5071 140.284C64.3668 141.615 72.2601 154.368 69.3297 167.255C67.6508 174.612 62.5532 181.041 54.1792 186.398C54.1385 186.42 54.1003 186.443 54.052 186.476C53.4924 186.83 52.9175 187.184 52.3197 187.53C52.2892 187.548 52.2612 187.568 52.2332 187.586C51.9483 187.754 51.6659 187.914 51.3734 188.067C40.2242 194.039 30.4003 189.357 24.9236 182.993C19.5105 176.698 15.9798 165.627 23.8756 155.116L45.6958 125.834L33.7148 109.735L8.46812 143.635C-3.46203 159.513 -2.71162 180.362 10.3429 195.525C18.4905 204.998 29.6066 209.995 41.056 209.995C44.2306 209.995 47.4154 209.618 50.5823 208.83C52.5995 208.341 54.5938 207.69 56.5626 206.863C57.8778 206.321 59.1929 205.7 60.4876 205.008C61.0244 204.718 61.5509 204.417 62.0724 204.11L65.1605 202.298C64.7662 202.524 64.3719 202.748 63.9726 202.97H63.909C77.1542 194.71 85.3146 184.062 88.1559 171.291C88.5502 169.515 88.8147 167.757 88.9877 166.024H88.9928V166.006C90.9337 146.457 79.8481 130.06 79.3317 129.317L23.8349 54.7773C15.9798 44.3043 19.5003 33.2435 24.9134 26.9637C26.5592 25.0528 28.6018 23.2819 30.9573 21.9206C36.4188 18.7578 43.5565 17.7273 51.3403 21.9053C51.6634 22.0707 51.9788 22.2514 52.2866 22.4244L158.017 84.4865C165.313 88.7765 169.685 96.3488 169.759 104.781C169.759 104.857 169.746 104.931 169.746 105.008C169.746 113.529 165.351 121.193 157.992 125.503L124.259 145.309C124.259 145.309 124.254 145.302 124.254 145.299L124.168 145.348L95.0138 162.462V162.477C94.9655 165.38 94.6272 168.378 93.9582 171.423C92.3124 178.802 88.9012 185.471 83.7654 191.38L131.382 163.429L167.745 142.083L168.815 141.447L168.864 141.391C181.43 133.516 188.911 120.104 188.99 105.232C188.99 105.153 189 105.079 189 105C189 89.5932 181.058 75.7386 167.757 67.9347V67.9322Z" fill="#007AFF"/>
</g>
<defs>
<clipPath id="clip0_1_149">
<rect width="189" height="210" fill="white"/>
</clipPath>
</defs>
</svg>
