<svg width="205" height="58" viewBox="0 0 205 58" fill="none" xmlns="http://www.w3.org/2000/svg">
<g id="Group 2">
<path id="Vector" d="M45.806 18.882L16.9358 1.94132C16.794 1.85595 16.6492 1.77667 16.5059 1.69587C13.0695 -0.144255 9.20179 -0.080225 6.0033 1.68519C4.83245 2.32703 3.75765 3.19754 2.82158 4.28149C-0.73975 8.41605 -0.945566 14.1026 2.30018 18.4277L10.1683 28.9974L13.44 33.3911L17.3398 38.6309C17.5746 38.9938 19.7303 42.4743 18.9299 45.993C18.471 48.0008 17.0791 49.7555 14.7923 51.2191C14.7816 51.2252 14.7709 51.2313 14.7572 51.2404C14.6048 51.3365 14.4477 51.4341 14.2846 51.5286C14.277 51.5331 14.2694 51.5392 14.2602 51.5438C14.1825 51.5896 14.1047 51.6338 14.0254 51.6749C10.9809 53.3047 8.29926 52.0271 6.80368 50.2891C5.32488 48.571 4.36137 45.5493 6.51707 42.6801L12.475 34.687L9.20331 30.2932L2.30933 39.5472C-0.948615 43.8815 -0.742799 49.5726 2.82158 53.7117C5.04589 56.2973 8.08125 57.6618 11.2081 57.6618C12.0755 57.6618 12.9445 57.5581 13.809 57.3432C14.3593 57.2105 14.9036 57.0322 15.4417 56.8065C15.8015 56.6587 16.1598 56.4894 16.5135 56.3004C16.6598 56.2211 16.8032 56.1388 16.9465 56.0549L17.7895 55.561C17.6813 55.6235 17.5746 55.6845 17.4648 55.7439H17.448C21.0642 53.4891 23.2931 50.5834 24.0691 47.0967C24.1774 46.6119 24.249 46.1317 24.2963 45.6591V45.6545C24.8253 40.3186 21.7991 35.8426 21.6588 35.6398L6.50944 15.2933C4.36441 12.4347 5.3264 9.41463 6.80368 7.70104C7.25342 7.17965 7.80988 6.69637 8.45323 6.32438C9.94424 5.46149 11.8926 5.17945 14.0193 6.31981C14.1078 6.36554 14.1931 6.41433 14.277 6.46159L43.1457 23.4023C45.1383 24.5731 46.332 26.6404 46.3518 28.9425C46.3518 28.9638 46.3488 28.9836 46.3488 29.005C46.3488 31.3314 45.149 33.4231 43.1396 34.6001L33.9283 40.0061C33.9283 40.0061 33.9283 40.0046 33.9268 40.003L33.9024 40.0168L25.9428 44.688V44.6925C25.9291 45.4853 25.8376 46.304 25.6546 47.1348C25.2049 49.1488 24.2734 50.9691 22.8724 52.582L35.8736 44.9517L45.803 39.1249L46.0957 38.9511L46.1079 38.9359C49.5396 36.7862 51.5825 33.1258 51.6023 29.066C51.6023 29.0446 51.6054 29.0233 51.6054 29.0019C51.6054 24.7973 49.436 21.0149 45.8045 18.8836L45.806 18.882Z" fill="#007AFF"/>
<g id="Group">
<path id="Vector_2" d="M63.3916 38.9133C63.1538 38.9133 62.9647 38.8295 62.8214 38.6602C62.7025 38.4925 62.6675 38.2883 62.7147 38.0474L66.2745 21.0685C66.3218 20.8048 66.4407 20.5883 66.6297 20.4191C66.8432 20.2514 67.0688 20.166 67.3066 20.166H70.1895C70.4274 20.166 70.6042 20.2499 70.7231 20.4191C70.8649 20.5868 70.9137 20.8033 70.8649 21.0685L70.5448 22.5458C71.1149 21.7775 71.8376 21.1875 72.7157 20.7789C73.5938 20.3703 74.661 20.166 75.9188 20.166H77.6628C77.9235 20.166 78.1141 20.2499 78.233 20.4191C78.3519 20.5868 78.387 20.7911 78.3397 21.032L77.8062 23.6267C77.7589 23.8676 77.6278 24.0719 77.4143 24.2396C77.2238 24.4073 77.0103 24.4927 76.774 24.4927H73.9978C72.859 24.4927 71.8985 24.8174 71.1149 25.4653C70.3557 26.1148 69.8572 27.0036 69.6194 28.1333L67.5201 38.0458C67.4728 38.2867 67.3539 38.491 67.1648 38.6587C66.9743 38.8264 66.7502 38.9118 66.488 38.9118H63.3916V38.9133Z" fill="black"/>
<path id="Vector_3" d="M84.3999 39.2749C82.668 39.2749 81.2197 38.9258 80.058 38.2291C78.9191 37.5324 78.1233 36.5231 77.6736 35.2013C77.2467 33.8796 77.1873 32.2818 77.4952 30.4067C77.5425 30.1658 77.6019 29.8655 77.6736 29.5057C77.7453 29.1215 77.8154 28.8211 77.887 28.6047C78.3612 26.8026 79.0975 25.24 80.0931 23.9182C81.0901 22.5964 82.2991 21.5872 83.723 20.8905C85.1698 20.1694 86.7599 19.8096 88.4917 19.8096C90.4142 19.8096 91.9326 20.2181 93.0471 21.0353C94.1615 21.8281 94.8979 22.9456 95.2531 24.3878C95.6327 25.8056 95.6449 27.4521 95.2882 29.3258L95.1098 30.0819C95.0625 30.3228 94.9314 30.5271 94.718 30.6948C94.5289 30.8625 94.3033 30.9464 94.0411 30.9464H82.2244C82.2244 30.9464 82.2122 30.9829 82.1893 31.0546C82.1893 31.1262 82.1771 31.1872 82.1542 31.2345C82.0353 32.076 82.0475 32.8566 82.1893 33.5777C82.3311 34.2744 82.6406 34.84 83.1147 35.2715C83.6132 35.7044 84.2657 35.9209 85.0722 35.9209C85.7369 35.9209 86.3178 35.8249 86.8163 35.6328C87.3148 35.4163 87.7173 35.177 88.0268 34.9117C88.3591 34.6464 88.6076 34.4315 88.7738 34.2622C89.0589 33.9741 89.2723 33.8064 89.4141 33.7576C89.5559 33.686 89.7586 33.6494 90.0193 33.6494H93.1157C93.3291 33.6494 93.4953 33.721 93.6142 33.8658C93.7331 34.0107 93.7682 34.1906 93.7209 34.4071C93.602 34.7913 93.3063 35.2608 92.8306 35.8127C92.3565 36.3661 91.7162 36.9058 90.9082 37.4348C90.1017 37.9638 89.1397 38.4075 88.0252 38.7688C86.9337 39.1057 85.7232 39.2734 84.3953 39.2734L84.3999 39.2749ZM82.8692 27.9201H90.7359L90.7709 27.8119C91.0088 26.8743 91.0316 26.0571 90.8426 25.3604C90.6764 24.6637 90.3319 24.1103 89.8105 23.7017C89.2891 23.2931 88.6244 23.0889 87.8179 23.0889C87.0114 23.0889 86.24 23.2931 85.5753 23.7017C84.9106 24.1103 84.3541 24.6637 83.9029 25.3604C83.4516 26.0571 83.1193 26.8743 82.9058 27.8119L82.8708 27.9201H82.8692Z" fill="black"/>
<path id="Vector_4" d="M95.8949 45.7638C95.6571 45.7638 95.4803 45.6799 95.3613 45.5123C95.2196 45.3446 95.1723 45.1403 95.2196 44.8994L100.238 21.0357C100.286 20.7949 100.405 20.5906 100.595 20.4229C100.786 20.2552 100.999 20.1698 101.235 20.1698H104.083C104.321 20.1698 104.498 20.2536 104.617 20.4229C104.759 20.5906 104.807 20.7949 104.759 21.0357L104.438 22.4779C105.175 21.7096 105.981 21.0723 106.859 20.5677C107.76 20.0631 108.936 19.8115 110.383 19.8115C111.616 19.8115 112.66 20.028 113.516 20.461C114.394 20.8696 115.081 21.458 115.58 22.2279C116.078 22.9963 116.398 23.9095 116.54 24.9675C116.706 26.0012 116.682 27.1415 116.469 28.3916C116.421 28.8002 116.35 29.1844 116.255 29.5457C116.184 29.9055 116.089 30.3019 115.97 30.7349C115.685 31.9118 115.283 33.0293 114.76 34.0873C114.238 35.121 113.596 36.0342 112.837 36.8269C112.102 37.5953 111.224 38.196 110.203 38.6289C109.206 39.0619 108.079 39.2784 106.821 39.2784C105.492 39.2784 104.4 39.0497 103.547 38.5939C102.693 38.1136 102.075 37.4886 101.696 36.7202L99.9517 44.9024C99.9045 45.1433 99.7856 45.3476 99.595 45.5153C99.406 45.683 99.1803 45.7668 98.9181 45.7668H95.8934L95.8949 45.7638ZM106.039 35.4183C106.989 35.4183 107.796 35.2018 108.46 34.7688C109.125 34.313 109.671 33.723 110.098 33.0019C110.549 32.2564 110.904 31.4636 111.165 30.6221C111.284 30.2623 111.378 29.9009 111.45 29.5412C111.521 29.1814 111.581 28.82 111.628 28.4603C111.747 27.5943 111.759 26.8015 111.663 26.0804C111.569 25.3593 111.296 24.7831 110.845 24.3501C110.418 23.8942 109.73 23.6656 108.78 23.6656C107.783 23.6656 106.917 23.8942 106.183 24.3501C105.471 24.8059 104.878 25.3959 104.403 26.117C103.952 26.8137 103.632 27.5349 103.443 28.2804C103.324 28.7133 103.217 29.1692 103.123 29.6494C103.028 30.1296 102.944 30.5992 102.874 31.055C102.755 31.7761 102.755 32.4728 102.874 33.1452C103.016 33.7946 103.338 34.3343 103.835 34.7673C104.356 35.2003 105.092 35.4167 106.041 35.4167L106.039 35.4183Z" fill="black"/>
<path id="Vector_5" d="M119.657 38.9132C119.396 38.9132 119.193 38.8293 119.051 38.6601C118.932 38.4924 118.897 38.2881 118.945 38.0473L121.899 23.9895H119.016C118.778 23.9895 118.589 23.9056 118.446 23.7379C118.327 23.5702 118.292 23.3659 118.339 23.125L118.766 21.0349C118.813 20.794 118.932 20.5897 119.121 20.422C119.335 20.2543 119.573 20.169 119.833 20.169H122.681L123.001 18.6917C123.309 17.2495 123.808 16.0603 124.497 15.1227C125.209 14.1607 126.099 13.4411 127.166 12.9594C128.234 12.4792 129.481 12.2383 130.903 12.2383H133.751C134.012 12.2383 134.202 12.3221 134.321 12.4898C134.44 12.6575 134.475 12.8618 134.428 13.1027L134.001 15.1928C133.954 15.4337 133.823 15.638 133.609 15.8057C133.42 15.9734 133.205 16.0588 132.969 16.0588H130.833C129.883 16.0588 129.148 16.2997 128.627 16.7799C128.106 17.2601 127.761 17.9568 127.595 18.87L127.31 20.1674H131.723C131.984 20.1674 132.175 20.2513 132.293 20.4205C132.412 20.5882 132.447 20.7925 132.4 21.0334L131.973 23.1235C131.926 23.3644 131.807 23.5687 131.617 23.7364C131.428 23.9041 131.202 23.9879 130.94 23.9879H126.526L123.537 38.0457C123.489 38.2866 123.37 38.4909 123.181 38.6586C122.991 38.8263 122.777 38.9117 122.541 38.9117H119.658L119.657 38.9132Z" fill="black"/>
<path id="Vector_6" d="M139.498 39.2749C137.695 39.2749 136.189 38.938 134.978 38.2657C133.792 37.5934 132.937 36.6436 132.415 35.4178C131.917 34.1921 131.798 32.7621 132.059 31.1278C132.13 30.6948 132.225 30.1658 132.344 29.5422C132.485 28.9172 132.617 28.3882 132.735 27.9567C133.162 26.298 133.815 24.868 134.693 23.6667C135.594 22.4409 136.734 21.4927 138.109 20.8188C139.509 20.1465 141.159 19.8096 143.057 19.8096C144.955 19.8096 146.354 20.1465 147.542 20.8188C148.752 21.4911 149.618 22.4409 150.14 23.6667C150.661 24.868 150.792 26.298 150.531 27.9567C150.437 28.3897 150.33 28.9187 150.211 29.5422C150.092 30.1673 149.973 30.6963 149.855 31.1278C149.428 32.7621 148.775 34.1921 147.897 35.4178C147.043 36.6436 145.915 37.5934 144.516 38.2657C143.139 38.938 141.467 39.2749 139.497 39.2749H139.498ZM139.855 35.706C141.136 35.706 142.217 35.3096 143.093 34.5168C143.994 33.6997 144.648 32.5105 145.051 30.9479C145.145 30.5881 145.252 30.1185 145.371 29.5422C145.49 28.966 145.584 28.4964 145.656 28.1366C145.917 26.5984 145.81 25.4214 145.336 24.6043C144.862 23.7871 143.984 23.3785 142.701 23.3785C141.419 23.3785 140.364 23.7871 139.462 24.6043C138.561 25.4214 137.919 26.5984 137.539 28.1366C137.445 28.4964 137.326 28.966 137.183 29.5422C137.064 30.1185 136.981 30.5881 136.934 30.9479C136.673 32.5105 136.768 33.6997 137.219 34.5168C137.693 35.3096 138.571 35.706 139.854 35.706H139.855Z" fill="black"/>
<path id="Vector_7" d="M151.903 38.9133C151.665 38.9133 151.476 38.8295 151.333 38.6602C151.214 38.4925 151.179 38.2883 151.226 38.0474L154.786 21.0685C154.833 20.8048 154.952 20.5883 155.141 20.4191C155.355 20.2514 155.58 20.166 155.818 20.166H158.701C158.939 20.166 159.116 20.2499 159.235 20.4191C159.376 20.5868 159.424 20.8033 159.376 21.0685L159.056 22.5458C159.626 21.7775 160.349 21.1875 161.227 20.7789C162.105 20.3703 163.173 20.166 164.43 20.166H166.174C166.435 20.166 166.626 20.2499 166.745 20.4191C166.863 20.5868 166.899 20.7911 166.851 21.032L166.318 23.6267C166.27 23.8676 166.139 24.0719 165.926 24.2396C165.737 24.4073 165.523 24.4927 165.286 24.4927H162.509C161.371 24.4927 160.41 24.8174 159.626 25.4653C158.867 26.1148 158.369 27.0036 158.131 28.1333L156.032 38.0458C155.984 38.2867 155.865 38.491 155.675 38.6587C155.486 38.8264 155.26 38.9118 154.998 38.9118H151.902L151.903 38.9133Z" fill="black"/>
<path id="Vector_8" d="M174.03 39.2754C172.44 39.2754 171.041 38.9506 169.83 38.3027C168.644 37.6532 167.766 36.7172 167.196 35.4914C166.626 34.2413 166.496 32.7396 166.804 30.9849C166.876 30.6251 166.97 30.1555 167.089 29.5793C167.208 28.9786 167.315 28.4862 167.409 28.102C168.05 25.4828 169.236 23.4521 170.969 22.0099C172.701 20.5448 174.909 19.8115 177.59 19.8115C179.086 19.8115 180.331 20.028 181.327 20.461C182.347 20.8939 183.143 21.4458 183.711 22.1197C184.304 22.792 184.708 23.4887 184.922 24.2098C185.16 24.9309 185.242 25.5804 185.17 26.1567C185.146 26.4204 185.039 26.6369 184.85 26.8061C184.684 26.951 184.483 27.0226 184.245 27.0226H181.007C180.769 27.0226 180.58 26.9631 180.437 26.8427C180.318 26.7223 180.248 26.5424 180.223 26.3015C180.223 25.3395 179.962 24.6428 179.44 24.2113C178.941 23.7784 178.218 23.5619 177.269 23.5619C176.105 23.5619 175.061 23.9461 174.136 24.716C173.235 25.4615 172.582 26.6506 172.178 28.2849C172.084 28.7179 171.989 29.1615 171.893 29.6189C171.799 30.0747 171.715 30.4726 171.643 30.808C171.382 32.4667 171.501 33.6681 172 34.4136C172.498 35.1591 173.329 35.5311 174.491 35.5311C175.416 35.5311 176.247 35.339 176.982 34.9548C177.718 34.5462 178.334 33.8617 178.833 32.8997C178.975 32.636 179.118 32.4546 179.26 32.3585C179.426 32.2381 179.627 32.1786 179.865 32.1786H183.068C183.306 32.1786 183.483 32.2625 183.602 32.4302C183.743 32.575 183.78 32.7793 183.708 33.043C183.542 33.572 183.234 34.1971 182.783 34.9182C182.356 35.6149 181.763 36.2994 181.004 36.9733C180.245 37.6456 179.284 38.199 178.121 38.632C176.982 39.065 175.618 39.2814 174.027 39.2814L174.03 39.2754Z" fill="black"/>
<path id="Vector_9" d="M193.851 39.2749C192.119 39.2749 190.671 38.9258 189.509 38.2291C188.371 37.5324 187.575 36.5231 187.125 35.2013C186.698 33.8796 186.639 32.2818 186.947 30.4067C186.994 30.1658 187.053 29.8655 187.125 29.5057C187.197 29.1215 187.267 28.8211 187.338 28.6047C187.813 26.8026 188.549 25.24 189.546 23.9182C190.543 22.5964 191.754 21.5872 193.176 20.8905C194.623 20.1694 196.213 19.8096 197.945 19.8096C199.867 19.8096 201.386 20.2181 202.5 21.0353C203.614 21.8281 204.351 22.9456 204.706 24.3878C205.086 25.8056 205.098 27.4521 204.741 29.3258L204.563 30.0819C204.515 30.3228 204.384 30.5271 204.171 30.6948C203.982 30.8625 203.756 30.9464 203.494 30.9464H191.677C191.677 30.9464 191.665 30.9829 191.642 31.0546C191.642 31.1262 191.63 31.1872 191.607 31.2345C191.488 32.076 191.5 32.8566 191.642 33.5777C191.784 34.2744 192.094 34.84 192.568 35.2715C193.066 35.7044 193.719 35.9209 194.525 35.9209C195.19 35.9209 195.771 35.8249 196.269 35.6328C196.768 35.4163 197.17 35.177 197.48 34.9117C197.812 34.6464 198.061 34.4315 198.227 34.2622C198.512 33.9741 198.725 33.8064 198.867 33.7576C199.009 33.686 199.212 33.6494 199.472 33.6494H202.569C202.782 33.6494 202.948 33.721 203.067 33.8658C203.186 34.0107 203.221 34.1906 203.174 34.4071C203.055 34.7913 202.759 35.2608 202.284 35.8127C201.809 36.3661 201.169 36.9058 200.361 37.4348C199.555 37.9638 198.594 38.4075 197.478 38.7688C196.387 39.1057 195.176 39.2734 193.848 39.2734L193.851 39.2749ZM192.321 27.9201H200.187L200.222 27.8119C200.46 26.8743 200.483 26.0571 200.294 25.3604C200.128 24.6637 199.783 24.1103 199.262 23.7017C198.74 23.2931 198.076 23.0889 197.269 23.0889C196.463 23.0889 195.691 23.2931 195.027 23.7017C194.362 24.1103 193.806 24.6637 193.354 25.3604C192.903 26.0571 192.571 26.8743 192.357 27.8119L192.322 27.9201H192.321Z" fill="black"/>
</g>
</g>
</svg>
