<svg width="115" height="32" viewBox="0 0 115 32" fill="none" xmlns="http://www.w3.org/2000/svg">
<g id="Group 1">
<path id="Vector" d="M25.5706 10.3517L9.45417 0.89482C9.37502 0.847161 9.29417 0.802905 9.21417 0.757799C7.29589 -0.269423 5.13677 -0.23368 3.35126 0.751841C2.69765 1.11013 2.09765 1.59609 1.57511 2.20119C-0.412955 4.50925 -0.527849 7.68368 1.28405 10.0981L5.67634 15.9985L7.5027 18.4512L9.6797 21.3763C9.81076 21.5788 11.0141 23.5218 10.5673 25.486C10.3112 26.6069 9.53417 27.5864 8.25758 28.4034C8.25163 28.4068 8.24567 28.4103 8.23801 28.4154C8.1529 28.469 8.06524 28.5234 7.97418 28.5762C7.96993 28.5788 7.96567 28.5822 7.96057 28.5847C7.91716 28.6102 7.87376 28.6349 7.8295 28.6579C6.12995 29.5677 4.63294 28.8545 3.79806 27.8843C2.97254 26.9252 2.43467 25.2384 3.63806 23.6367L6.96398 19.1746L5.13762 16.7219L1.28915 21.8878C-0.529551 24.3073 -0.414657 27.4843 1.57511 29.7949C2.8168 31.2383 4.51124 32 6.25675 32C6.741 32 7.22611 31.9421 7.70865 31.8221C8.01588 31.7481 8.31971 31.6485 8.62013 31.5226C8.82098 31.44 9.02098 31.3455 9.21842 31.24C9.30013 31.1958 9.38013 31.1498 9.46012 31.103L9.93076 30.8272C9.87033 30.8621 9.81076 30.8962 9.74948 30.9294H9.74012C11.7588 29.6707 13.0031 28.0486 13.4362 26.1022C13.4967 25.8316 13.5367 25.5635 13.5631 25.2997V25.2971C13.8584 22.3184 12.169 19.8197 12.0907 19.7065L3.63381 8.34835C2.43637 6.75262 2.97339 5.06669 3.79806 4.1101C4.04912 3.81904 4.35975 3.54926 4.7189 3.3416C5.55123 2.8599 6.63888 2.70246 7.8261 3.33905C7.87546 3.36458 7.92312 3.39181 7.96993 3.4182L24.0855 12.8751C25.1978 13.5287 25.8642 14.6827 25.8753 15.9678C25.8753 15.9798 25.8736 15.9908 25.8736 16.0027C25.8736 17.3014 25.2038 18.4691 24.0821 19.1261L18.94 22.1439C18.94 22.1439 18.94 22.1431 18.9392 22.1422L18.9255 22.1499L14.4822 24.7575V24.7601C14.4745 25.2026 14.4235 25.6596 14.3213 26.1235C14.0703 27.2477 13.5503 28.2639 12.7682 29.1643L20.026 24.9048L25.5689 21.652L25.7323 21.555L25.7391 21.5465C27.6548 20.3465 28.7952 18.3031 28.8063 16.0368C28.8063 16.0249 28.808 16.0129 28.808 16.001C28.808 13.6538 27.5969 11.5424 25.5697 10.3526L25.5706 10.3517Z" fill="#007AFF"/>
<g id="Group">
<path id="Vector_2" d="M35.3892 21.5338C35.2564 21.5338 35.1509 21.487 35.0709 21.3925C35.0045 21.2989 34.985 21.1849 35.0113 21.0504L36.9985 11.5722C37.0249 11.425 37.0913 11.3041 37.1968 11.2097C37.316 11.116 37.442 11.0684 37.5747 11.0684H39.1841C39.3168 11.0684 39.4155 11.1152 39.4819 11.2097C39.5611 11.3033 39.5883 11.4241 39.5611 11.5722L39.3824 12.3969C39.7006 11.968 40.104 11.6386 40.5943 11.4105C41.0845 11.1824 41.6802 11.0684 42.3823 11.0684H43.3559C43.5015 11.0684 43.6078 11.1152 43.6742 11.2097C43.7406 11.3033 43.7602 11.4173 43.7338 11.5518L43.4359 13.0003C43.4095 13.1348 43.3364 13.2488 43.2172 13.3424C43.1108 13.436 42.9917 13.4837 42.8598 13.4837H41.31C40.6743 13.4837 40.1381 13.665 39.7006 14.0267C39.2768 14.3892 38.9985 14.8854 38.8658 15.516L37.6939 21.0496C37.6675 21.184 37.6011 21.2981 37.4956 21.3917C37.3892 21.4853 37.2641 21.533 37.1177 21.533H35.3892V21.5338Z" fill="black"/>
<path id="Vector_3" d="M47.1174 21.7356C46.1506 21.7356 45.3421 21.5407 44.6936 21.1518C44.0579 20.7629 43.6136 20.1995 43.3626 19.4616C43.1243 18.7237 43.0911 17.8318 43.263 16.785C43.2894 16.6506 43.3226 16.4829 43.3626 16.2821C43.4026 16.0676 43.4417 15.8999 43.4817 15.7791C43.7464 14.7731 44.1574 13.9008 44.7132 13.1629C45.2698 12.4251 45.9447 11.8617 46.7395 11.4728C47.5472 11.0702 48.4348 10.8694 49.4016 10.8694C50.4748 10.8694 51.3225 11.0974 51.9446 11.5536C52.5667 11.9962 52.9778 12.62 53.1761 13.4251C53.388 14.2166 53.3948 15.1357 53.1956 16.1816L53.0961 16.6038C53.0697 16.7382 52.9965 16.8523 52.8773 16.9459C52.7718 17.0395 52.6459 17.0863 52.4995 17.0863H45.9029C45.9029 17.0863 45.8961 17.1067 45.8834 17.1467C45.8834 17.1867 45.8766 17.2208 45.8638 17.2472C45.7974 17.7169 45.8042 18.1527 45.8834 18.5552C45.9625 18.9442 46.1353 19.2599 46.4 19.5007C46.6783 19.7424 47.0425 19.8633 47.4927 19.8633C47.8638 19.8633 48.188 19.8097 48.4663 19.7024C48.7446 19.5816 48.9693 19.448 49.1421 19.2999C49.3276 19.1518 49.4663 19.0318 49.5591 18.9374C49.7182 18.7765 49.8374 18.6829 49.9165 18.6557C49.9957 18.6157 50.1089 18.5952 50.2544 18.5952H51.9829C52.102 18.5952 52.1948 18.6352 52.2612 18.7161C52.3276 18.7969 52.3471 18.8974 52.3207 19.0182C52.2544 19.2327 52.0893 19.4948 51.8237 19.8029C51.5591 20.1118 51.2016 20.4131 50.7506 20.7084C50.3003 21.0037 49.7633 21.2514 49.1412 21.4531C48.5319 21.6411 47.8561 21.7348 47.1148 21.7348L47.1174 21.7356ZM46.2629 15.397H50.6544L50.674 15.3365C50.8067 14.8131 50.8195 14.357 50.714 13.968C50.6212 13.5791 50.4289 13.2702 50.1378 13.0421C49.8467 12.814 49.4757 12.7 49.0255 12.7C48.5753 12.7 48.1446 12.814 47.7736 13.0421C47.4025 13.2702 47.0919 13.5791 46.84 13.968C46.588 14.357 46.4025 14.8131 46.2834 15.3365L46.2638 15.397H46.2629Z" fill="black"/>
<path id="Vector_4" d="M53.5336 25.3575C53.4009 25.3575 53.3022 25.3107 53.2358 25.2171C53.1566 25.1235 53.1302 25.0094 53.1566 24.875L55.9583 11.5534C55.9847 11.419 56.0511 11.3049 56.1574 11.2113C56.2638 11.1177 56.383 11.07 56.5149 11.07H58.1047C58.2374 11.07 58.3361 11.1168 58.4025 11.2113C58.4817 11.3049 58.5089 11.419 58.4817 11.5534L58.3029 12.3585C58.714 11.9296 59.1642 11.5738 59.6544 11.2921C60.1574 11.0104 60.8136 10.87 61.6212 10.87C62.3097 10.87 62.8927 10.9909 63.3701 11.2326C63.8603 11.4607 64.2442 11.7892 64.5225 12.2189C64.8008 12.6479 64.9795 13.1577 65.0586 13.7483C65.1514 14.3253 65.1378 14.9619 65.0186 15.6598C64.9922 15.8878 64.9522 16.1023 64.8995 16.304C64.8595 16.5049 64.8067 16.7261 64.7403 16.9678C64.5812 17.6248 64.3565 18.2487 64.0646 18.8393C63.7735 19.4163 63.4152 19.9261 62.9914 20.3686C62.5812 20.7976 62.091 21.1329 61.5208 21.3746C60.9642 21.6163 60.3353 21.7371 59.6331 21.7371C58.891 21.7371 58.2817 21.6095 57.8051 21.355C57.3285 21.0869 56.9838 20.738 56.7719 20.3091L55.7983 24.8767C55.7719 25.0111 55.7055 25.1252 55.5991 25.2188C55.4936 25.3124 55.3677 25.3592 55.2213 25.3592H53.5328L53.5336 25.3575ZM59.1966 19.5823C59.7268 19.5823 60.177 19.4614 60.548 19.2197C60.9191 18.9653 61.2238 18.6359 61.4621 18.2333C61.714 17.8172 61.9123 17.3746 62.0578 16.9049C62.1242 16.704 62.1769 16.5023 62.2169 16.3015C62.2569 16.1006 62.2901 15.8989 62.3165 15.6981C62.3829 15.2147 62.3897 14.7721 62.3361 14.3696C62.2833 13.967 62.131 13.6453 61.8791 13.4036C61.6408 13.1491 61.257 13.0215 60.7268 13.0215C60.1702 13.0215 59.6868 13.1491 59.2766 13.4036C58.8791 13.6581 58.5481 13.9874 58.2834 14.39C58.0315 14.7789 57.8527 15.1815 57.7472 15.5976C57.6808 15.8393 57.6213 16.0938 57.5685 16.3619C57.5157 16.63 57.4689 16.8921 57.4298 17.1465C57.3634 17.5491 57.3634 17.938 57.4298 18.3133C57.5089 18.6759 57.6885 18.9772 57.9659 19.2189C58.257 19.4606 58.668 19.5814 59.1974 19.5814L59.1966 19.5823Z" fill="black"/>
<path id="Vector_5" d="M66.7983 21.534C66.6528 21.534 66.5396 21.4872 66.4604 21.3927C66.394 21.2991 66.3745 21.1851 66.4008 21.0506L68.0502 13.2031H66.4408C66.3081 13.2031 66.2025 13.1562 66.1225 13.0626C66.0562 12.969 66.0366 12.855 66.063 12.7205L66.3013 11.5537C66.3276 11.4192 66.394 11.3052 66.4996 11.2116C66.6187 11.118 66.7515 11.0703 66.897 11.0703H68.4868L68.6655 10.2456C68.8374 9.44054 69.1157 8.77672 69.5004 8.25332C69.8978 7.71631 70.3948 7.31461 70.9906 7.04568C71.5863 6.77759 72.2825 6.64313 73.0765 6.64313H74.6663C74.8118 6.64313 74.9182 6.68994 74.9846 6.78355C75.051 6.87717 75.0705 6.99121 75.0442 7.12568L74.8059 8.29247C74.7795 8.42694 74.7063 8.54098 74.5871 8.6346C74.4816 8.72821 74.3616 8.77587 74.2297 8.77587H73.0374C72.5072 8.77587 72.0969 8.91034 71.8059 9.17842C71.5148 9.4465 71.3225 9.83543 71.2297 10.3452L71.0706 11.0695H73.5344C73.6799 11.0695 73.7863 11.1163 73.8527 11.2107C73.9191 11.3044 73.9386 11.4184 73.9122 11.5529L73.6739 12.7197C73.6476 12.8541 73.5812 12.9682 73.4748 13.0618C73.3693 13.1554 73.2433 13.2022 73.0969 13.2022H70.6331L68.9642 21.0498C68.9378 21.1842 68.8715 21.2983 68.7659 21.3919C68.6595 21.4855 68.5404 21.5332 68.4085 21.5332H66.7991L66.7983 21.534Z" fill="black"/>
<path id="Vector_6" d="M77.8748 21.7356C76.868 21.7356 76.0272 21.5475 75.3515 21.1722C74.6893 20.7969 74.2119 20.2667 73.9208 19.5825C73.6425 18.8982 73.5762 18.0999 73.7217 17.1876C73.7617 16.9459 73.8145 16.6506 73.8808 16.3025C73.96 15.9536 74.0332 15.6582 74.0995 15.4174C74.3378 14.4914 74.7021 13.6932 75.1923 13.0225C75.6953 12.3383 76.3319 11.8089 77.0995 11.4328C77.8808 11.0574 78.8016 10.8694 79.8612 10.8694C80.9208 10.8694 81.702 11.0574 82.365 11.4328C83.0407 11.8081 83.5241 12.3383 83.8152 13.0225C84.1062 13.6932 84.1794 14.4914 84.0339 15.4174C83.9811 15.6591 83.9216 15.9544 83.8552 16.3025C83.7888 16.6514 83.7224 16.9467 83.656 17.1876C83.4177 18.0999 83.0535 18.8982 82.5633 19.5825C82.0867 20.2667 81.4569 20.7969 80.6756 21.1722C79.9071 21.5475 78.9735 21.7356 77.874 21.7356H77.8748ZM78.074 19.7433C78.7889 19.7433 79.3923 19.522 79.8816 19.0795C80.3846 18.6233 80.7497 17.9595 80.9744 17.0872C81.0271 16.8863 81.0867 16.6242 81.1531 16.3025C81.2195 15.9808 81.2722 15.7187 81.3122 15.5178C81.4578 14.6591 81.3982 14.0021 81.1335 13.5459C80.8688 13.0898 80.3786 12.8617 79.6629 12.8617C78.9472 12.8617 78.3582 13.0898 77.8544 13.5459C77.3514 14.0021 76.9931 14.6591 76.7812 15.5178C76.7285 15.7187 76.6621 15.9808 76.5821 16.3025C76.5157 16.6242 76.4697 16.8863 76.4434 17.0872C76.2978 17.9595 76.3506 18.6233 76.6025 19.0795C76.8672 19.522 77.3574 19.7433 78.0731 19.7433H78.074Z" fill="black"/>
<path id="Vector_7" d="M84.7996 21.5338C84.6668 21.5338 84.5613 21.487 84.4813 21.3925C84.4149 21.2989 84.3953 21.1849 84.4217 21.0504L86.4089 11.5722C86.4353 11.425 86.5017 11.3041 86.6072 11.2097C86.7263 11.116 86.8523 11.0684 86.9851 11.0684H88.5944C88.7272 11.0684 88.8259 11.1152 88.8923 11.2097C88.9714 11.3033 88.9978 11.4241 88.9714 11.5722L88.7927 12.3969C89.111 11.968 89.5144 11.6386 90.0046 11.4105C90.4948 11.1824 91.0905 11.0684 91.7927 11.0684H92.7663C92.9118 11.0684 93.0182 11.1152 93.0846 11.2097C93.1509 11.3033 93.1705 11.4173 93.1441 11.5518L92.8463 13.0003C92.8199 13.1348 92.7467 13.2488 92.6275 13.3424C92.522 13.436 92.4029 13.4837 92.2701 13.4837H90.7203C90.0846 13.4837 89.5484 13.665 89.111 14.0267C88.6872 14.3892 88.4089 14.8854 88.2761 15.516L87.1042 21.0496C87.0778 21.184 87.0114 21.2981 86.9051 21.3917C86.7995 21.4853 86.6736 21.533 86.5272 21.533H84.7987L84.7996 21.5338Z" fill="black"/>
<path id="Vector_8" d="M97.1518 21.7354C96.2642 21.7354 95.4829 21.5542 94.8072 21.1925C94.1451 20.8299 93.6548 20.3074 93.3366 19.6231C93.0183 18.9253 92.9459 18.087 93.1178 17.1074C93.1578 16.9066 93.2106 16.6444 93.277 16.3227C93.3434 15.9874 93.4029 15.7125 93.4557 15.4981C93.8131 14.0359 94.4753 12.9023 95.4429 12.0972C96.4097 11.2794 97.642 10.87 99.139 10.87C99.9739 10.87 100.669 10.9909 101.225 11.2326C101.794 11.4743 102.239 11.7824 102.556 12.1585C102.887 12.5338 103.113 12.9228 103.232 13.3253C103.365 13.7279 103.41 14.0904 103.37 14.4121C103.357 14.5593 103.297 14.6802 103.192 14.7747C103.099 14.8555 102.987 14.8955 102.854 14.8955H101.046C100.913 14.8955 100.808 14.8623 100.728 14.7951C100.662 14.7279 100.622 14.6274 100.609 14.493C100.609 13.9559 100.463 13.567 100.171 13.3262C99.8931 13.0845 99.4897 12.9636 98.9595 12.9636C98.3101 12.9636 97.7271 13.1781 97.2106 13.6079C96.7076 14.024 96.3433 14.6879 96.1178 15.6002C96.065 15.8419 96.0123 16.0895 95.9587 16.3449C95.9059 16.5993 95.8591 16.8214 95.8191 17.0087C95.6736 17.9346 95.7399 18.6053 96.0182 19.0214C96.2965 19.4376 96.7603 19.6452 97.4088 19.6452C97.9254 19.6452 98.3893 19.538 98.7995 19.3235C99.2105 19.0955 99.5544 18.7133 99.8326 18.1763C99.9118 18.0291 99.9918 17.9278 100.071 17.8742C100.164 17.807 100.276 17.7738 100.409 17.7738H102.197C102.33 17.7738 102.428 17.8206 102.495 17.9142C102.574 17.9951 102.594 18.1091 102.554 18.2563C102.462 18.5516 102.29 18.9006 102.038 19.3031C101.799 19.6921 101.468 20.0742 101.045 20.4503C100.621 20.8257 100.085 21.1346 99.4352 21.3763C98.7995 21.618 98.0378 21.7388 97.1501 21.7388L97.1518 21.7354Z" fill="black"/>
<path id="Vector_9" d="M108.215 21.7356C107.248 21.7356 106.44 21.5407 105.791 21.1518C105.156 20.7629 104.711 20.1995 104.46 19.4616C104.222 18.7237 104.189 17.8318 104.361 16.785C104.387 16.6506 104.42 16.4829 104.46 16.2821C104.5 16.0676 104.539 15.8999 104.579 15.7791C104.844 14.7731 105.255 13.9008 105.812 13.1629C106.368 12.4251 107.044 11.8617 107.838 11.4728C108.646 11.0702 109.533 10.8694 110.5 10.8694C111.573 10.8694 112.421 11.0974 113.043 11.5536C113.665 11.9962 114.076 12.62 114.275 13.4251C114.487 14.2166 114.493 15.1357 114.294 16.1816L114.195 16.6038C114.168 16.7382 114.095 16.8523 113.976 16.9459C113.87 17.0395 113.744 17.0863 113.598 17.0863H107.002C107.002 17.0863 106.995 17.1067 106.982 17.1467C106.982 17.1867 106.975 17.2208 106.962 17.2472C106.896 17.7169 106.903 18.1527 106.982 18.5552C107.061 18.9442 107.234 19.2599 107.499 19.5007C107.777 19.7424 108.141 19.8633 108.591 19.8633C108.962 19.8633 109.287 19.8097 109.565 19.7024C109.843 19.5816 110.068 19.448 110.241 19.2999C110.426 19.1518 110.565 19.0318 110.658 18.9374C110.817 18.7765 110.936 18.6829 111.015 18.6557C111.094 18.6157 111.207 18.5952 111.353 18.5952H113.082C113.201 18.5952 113.293 18.6352 113.36 18.7161C113.426 18.7969 113.446 18.8974 113.419 19.0182C113.353 19.2327 113.188 19.4948 112.922 19.8029C112.658 20.1118 112.3 20.4131 111.849 20.7084C111.399 21.0037 110.863 21.2514 110.24 21.4531C109.63 21.6411 108.955 21.7348 108.213 21.7348L108.215 21.7356ZM107.361 15.397H111.752L111.772 15.3365C111.904 14.8131 111.917 14.357 111.812 13.968C111.719 13.5791 111.527 13.2702 111.236 13.0421C110.945 12.814 110.573 12.7 110.123 12.7C109.673 12.7 109.242 12.814 108.871 13.0421C108.5 13.2702 108.19 13.5791 107.938 13.968C107.686 14.357 107.5 14.8131 107.381 15.3365L107.362 15.397H107.361Z" fill="black"/>
</g>
</g>
</svg>
