<svg width="150" height="22" viewBox="0 0 150 22" fill="none" xmlns="http://www.w3.org/2000/svg">
<path d="M11 17.6811L17.798 22L15.994 13.86L22 8.38316L14.091 7.67684L11 0L7.909 7.67684L0 8.38316L6.006 13.86L4.202 22L11 17.6811Z" fill="#FFDC27"/>
<path d="M43 17.6811L49.798 22L47.994 13.86L54 8.38316L46.091 7.67684L43 0L39.909 7.67684L32 8.38316L38.006 13.86L36.202 22L43 17.6811Z" fill="#FFDC27"/>
<path d="M75 17.6811L81.798 22L79.994 13.86L86 8.38316L78.091 7.67684L75 0L71.909 7.67684L64 8.38316L70.006 13.86L68.202 22L75 17.6811Z" fill="#FFDC27"/>
<path d="M107 17.6811L113.798 22L111.994 13.86L118 8.38316L110.091 7.67684L107 0L103.909 7.67684L96 8.38316L102.006 13.86L100.202 22L107 17.6811Z" fill="#FFDC27"/>
<path d="M139 17.6811L145.798 22L143.994 13.86L150 8.38316L142.091 7.67684L139 0L135.909 7.67684L128 8.38316L134.006 13.86L132.202 22L139 17.6811Z" fill="#FFDC27"/>
</svg>
